<?xml version="1.0" standalone="no"?>
<!DOCTYPE svg PUBLIC "-//W3C//DTD SVG 20010904//EN"
 "http://www.w3.org/TR/2001/REC-SVG-20010904/DTD/svg10.dtd">
<svg version="1.0" xmlns="http://www.w3.org/2000/svg"
 width="1024.000000pt" height="1024.000000pt" viewBox="0 0 1024.000000 1024.000000"
 preserveAspectRatio="xMidYMid meet">

<g transform="translate(0.000000,1024.000000) scale(0.100000,-0.100000)"
fill="#000000" stroke="none">
<path d="M2169 7781 l-29 -30 2 -2636 3 -2637 28 -24 28 -24 569 0 568 0 31
29 31 29 0 1037 c0 963 1 1036 17 1033 23 -4 446 -520 1324 -1615 208 -259
390 -481 405 -492 l27 -21 960 2 c902 3 960 4 971 20 9 16 -37 66 -339 368
l-350 350 648 0 648 0 76 25 c132 45 229 132 291 263 l37 77 3 1280 c2 946 0
1294 -8 1335 -33 153 -154 285 -315 344 -21 7 -347 12 -1033 16 l-1002 5 615
615 c338 338 618 623 621 633 15 49 58 47 -1100 47 -1011 0 -1083 -1 -1107
-18 -34 -22 -87 -80 -450 -492 -168 -190 -362 -410 -433 -490 -70 -80 -212
-241 -315 -358 l-186 -212 -5 761 -5 761 -28 24 -28 24 -570 0 -571 0 -29 -29z
m3701 -1886 c494 -75 898 -274 1231 -607 234 -234 418 -556 518 -903 51 -179
85 -424 79 -570 l-3 -80 -165 0 -165 0 -12 160 c-22 285 -71 472 -184 700
-166 335 -408 582 -750 764 -268 142 -592 221 -909 221 -46 0 -81 5 -88 12
-16 16 -17 281 -1 310 11 20 16 21 178 15 91 -4 213 -14 271 -22z m-1170 -737
l0 -473 -225 225 c-170 169 -225 230 -223 246 2 16 432 472 446 474 1 0 2
-213 2 -472z m1136 -17 c285 -58 512 -179 714 -380 247 -245 371 -521 400
-891 7 -93 6 -118 -5 -129 -18 -19 -308 -30 -328 -12 -9 7 -16 47 -21 120 -22
361 -197 644 -514 830 -146 85 -310 130 -507 138 -111 4 -143 8 -152 21 -17
21 -18 284 -2 314 11 20 17 21 163 15 92 -3 191 -13 252 -26z m58 -794 c66
-30 134 -96 164 -158 86 -177 15 -372 -167 -458 -47 -22 -70 -26 -141 -26 -76
0 -93 4 -152 33 -128 63 -194 173 -186 312 6 94 34 159 96 223 78 81 150 109
259 103 49 -3 91 -13 127 -29z"/>
</g>
</svg>
